<svg width="17" height="19" viewBox="0 0 17 19" fill="none" xmlns="http://www.w3.org/2000/svg">
<path id="Vector" d="M6.47758 17.5941C9.72596 14.3494 12.2669 11.7557 15.0933 8.97135C16.0264 7.99246 16.6174 7.03435 16.8662 6.0971C17.3017 4.3284 16.6321 2.7968 15.4665 1.59826C14.3468 0.473554 13.1493 -0.0575597 11.8741 0.00493448C10.5988 0.0674287 9.33914 0.713096 8.09498 1.94194L0.163529 9.93985L1.46989 11.2207L9.40133 3.25408C10.2152 2.47687 11.1837 1.74413 12.294 1.84819C13.9856 2.08673 15.4796 4.16644 15.0933 5.62846C14.6035 6.92559 13.9283 7.5172 12.9938 8.45584C10.1511 11.3039 7.93451 13.5064 5.17126 16.2819C4.13278 17.2351 3.46117 17.4931 2.49636 16.5943C1.9987 16.0945 1.78098 15.605 1.84318 15.126C1.91221 14.567 2.22722 14.1805 2.58965 13.8138L9.83677 6.53445C10.1678 6.20131 10.9219 5.56188 11.2364 5.84714C11.4778 6.40955 10.8562 6.94637 10.5522 7.25303L3.896 13.9388L5.17123 15.251L11.8585 8.56521C13.0103 7.37193 13.8378 5.91376 12.5428 4.56625C11.1105 3.33144 9.60162 4.1558 8.53041 5.22234L1.28329 12.5017C0.536819 13.2515 0.111715 14.0638 0.00805627 14.9386C-0.0737235 16.1649 0.476745 17.1493 1.22109 17.9065C1.92074 18.6055 2.6766 18.9926 3.61609 19C4.74562 18.9546 5.85624 18.2073 6.47758 17.5941Z" fill="#999999"/>
</svg>
