<svg width="18" height="17" viewBox="0 0 18 17" fill="none" xmlns="http://www.w3.org/2000/svg">
<path id="Vector" d="M8.991 0C4.023 0 0 3.808 0 8.5C0 13.192 4.023 17 8.991 17C13.968 17 18 13.192 18 8.5C18 3.808 13.968 0 8.991 0ZM5.85 5.1C6.597 5.1 7.2 5.6695 7.2 6.375C7.2 7.0805 6.597 7.65 5.85 7.65C5.103 7.65 4.5 7.0805 4.5 6.375C4.5 5.6695 5.103 5.1 5.85 5.1ZM13.239 10.812C12.42 12.4695 10.836 13.6 9 13.6C7.164 13.6 5.58 12.4695 4.761 10.812C4.617 10.5315 4.833 10.2 5.166 10.2H12.834C13.167 10.2 13.383 10.5315 13.239 10.812ZM12.15 7.65C11.403 7.65 10.8 7.0805 10.8 6.375C10.8 5.6695 11.403 5.1 12.15 5.1C12.897 5.1 13.5 5.6695 13.5 6.375C13.5 7.0805 12.897 7.65 12.15 7.65Z" fill="#999999"/>
</svg>
