<svg width="11" height="11" viewBox="0 0 11 11" fill="none" xmlns="http://www.w3.org/2000/svg">
<path id="Exclude" fill-rule="evenodd" clip-rule="evenodd" d="M1.28906 1.23177H9.71094L9.13802 0.601562H1.80469L1.28906 1.23177ZM10.7135 1.375C10.9045 1.60417 11 1.86198 11 2.14844V9.76823C11 10.0929 10.8759 10.3793 10.6276 10.6276C10.3793 10.8759 10.0929 11 9.76823 11H1.23177C0.907118 11 0.62066 10.8759 0.372396 10.6276C0.124132 10.3793 0 10.0929 0 9.76823V2.14844C0 1.86198 0.0954861 1.60417 0.286458 1.375L1.11719 0.34375C1.30816 0.114583 1.54687 0 1.83333 0H9.16667C9.45313 0 9.69184 0.114583 9.88281 0.34375L10.7135 1.375ZM8.07812 3.79271V6.98958C8.07812 7.08379 8.0407 7.17414 7.97409 7.24075C7.90747 7.30737 7.81712 7.34479 7.72292 7.34479H4.17083L2.75 8.76562V3.79271C2.75 3.6985 2.78742 3.60815 2.85404 3.54154C2.92065 3.47492 3.011 3.4375 3.10521 3.4375H7.72292C7.81712 3.4375 7.90747 3.47492 7.97409 3.54154C8.0407 3.60815 8.07812 3.6985 8.07812 3.79271Z" fill="#555555"/>
</svg>
