<svg width="15" height="15" viewBox="0 0 15 15" fill="none" xmlns="http://www.w3.org/2000/svg">
<path id="snooze" d="M5.24648 6.81818V5.31469H9.75352V6.64336L7.04225 9.79021H9.75352V11.2937H5.24648V9.93007L7.95775 6.81818H5.24648ZM3.76761 11.993C4.80047 13.0186 6.0446 13.5315 7.5 13.5315C8.9554 13.5315 10.1878 13.0186 11.1972 11.993C12.23 10.9674 12.7465 9.73194 12.7465 8.28671C12.7465 6.84149 12.23 5.61772 11.1972 4.61538C10.1878 3.58974 8.9554 3.07692 7.5 3.07692C6.0446 3.07692 4.80047 3.58974 3.76761 4.61538C2.75822 5.61772 2.25352 6.84149 2.25352 8.28671C2.25352 9.73194 2.75822 10.9674 3.76761 11.993ZM2.71127 3.56643C4.02582 2.23776 5.62207 1.57343 7.5 1.57343C9.37793 1.57343 10.9742 2.23776 12.2887 3.56643C13.6033 4.87179 14.2606 6.44522 14.2606 8.28671C14.2606 10.1282 13.6033 11.7133 12.2887 13.042C10.9742 14.3473 9.37793 15 7.5 15C5.62207 15 4.02582 14.3473 2.71127 13.042C1.39671 11.7133 0.739437 10.1282 0.739437 8.28671C0.739437 6.44522 1.39671 4.87179 2.71127 3.56643ZM15 2.86713L14.0493 4.02098L10.5986 1.11888L11.5493 0L15 2.86713ZM4.40141 1.11888L0.950704 3.98601L0 2.86713L3.4507 0L4.40141 1.11888Z" fill="#555555"/>
</svg>
