<svg width="17" height="17" viewBox="0 0 17 17" fill="none" xmlns="http://www.w3.org/2000/svg">
<path id="archive" d="M1.99219 1.90365H15.0078L14.1224 0.929688H2.78906L1.99219 1.90365ZM8.5 13.6797L13.6797 8.5H10.4036V6.59635H6.59635V8.5H3.32031L8.5 13.6797ZM16.5573 2.125C16.8524 2.47917 17 2.8776 17 3.32031V15.0964C17 15.5981 16.8082 16.0408 16.4245 16.4245C16.0408 16.8082 15.5981 17 15.0964 17H1.90365C1.40191 17 0.959201 16.8082 0.575521 16.4245C0.19184 16.0408 0 15.5981 0 15.0964V3.32031C0 2.8776 0.147569 2.47917 0.442708 2.125L1.72656 0.53125C2.0217 0.177083 2.39062 0 2.83333 0H14.1667C14.6094 0 14.9783 0.177083 15.2734 0.53125L16.5573 2.125Z" fill="#999999"/>
</svg>
