<svg width="11" height="11" viewBox="0 0 11 11" fill="none" xmlns="http://www.w3.org/2000/svg">
<g id="Vector">
<path d="M4.2039 6.43866L3.33918 5.57333L4.63596 4.27777L3.33918 2.9816L4.20451 2.11688L5.50007 3.41366L6.79624 2.11688L7.66096 2.9816L6.36418 4.27777L7.66096 5.57394L6.79624 6.43866L5.50007 5.14188L4.2039 6.43866Z" fill="#555555"/>
<path d="M0 1.22222V11L2.93333 8.8C3.14478 8.64111 3.40206 8.55556 3.66667 8.55556H9.77778C10.1019 8.55556 10.4128 8.42679 10.642 8.19757C10.8712 7.96836 11 7.65749 11 7.33333V1.22222C11 0.898069 10.8712 0.587192 10.642 0.357981C10.4128 0.128769 10.1019 0 9.77778 0H1.22222C0.898069 0 0.587192 0.128769 0.357981 0.357981C0.128769 0.587192 0 0.898069 0 1.22222ZM1.22222 8.55556V1.22222H9.77778V7.33333H3.25967C2.9951 7.33262 2.73756 7.41847 2.52633 7.57778L1.22222 8.55556Z" fill="#555555"/>
</g>
</svg>
