<svg width="20" height="20" viewBox="0 0 20 20" fill="none" xmlns="http://www.w3.org/2000/svg">
<path d="M3.85547 10.7617C4.80339 11.7096 5.95443 12.1836 7.30859 12.1836C8.66276 12.1836 9.8138 11.7096 10.7617 10.7617C11.7096 9.8138 12.1836 8.66276 12.1836 7.30859C12.1836 5.95443 11.7096 4.80339 10.7617 3.85547C9.8138 2.90755 8.66276 2.43359 7.30859 2.43359C5.95443 2.43359 4.80339 2.90755 3.85547 3.85547C2.90755 4.80339 2.43359 5.95443 2.43359 7.30859C2.43359 8.66276 2.90755 9.8138 3.85547 10.7617ZM13.8086 12.1836L19.1914 17.5664L17.5664 19.1914L12.1836 13.8086V12.9453L11.8789 12.6406C10.5924 13.7578 9.06901 14.3164 7.30859 14.3164C5.34505 14.3164 3.66927 13.6393 2.28125 12.2852C0.927083 10.931 0.25 9.27214 0.25 7.30859C0.25 5.34505 0.927083 3.6862 2.28125 2.33203C3.66927 0.94401 5.34505 0.25 7.30859 0.25C9.27214 0.25 10.931 0.94401 12.2852 2.33203C13.6393 3.6862 14.3164 5.34505 14.3164 7.30859C14.3164 8.01953 14.1471 8.83203 13.8086 9.74609C13.4701 10.6263 13.0807 11.3372 12.6406 11.8789L12.9453 12.1836H13.8086Z" fill="#555555"/>
</svg>
